<?xml version="1.0" standalone="no"?>
<!DOCTYPE svg PUBLIC "-//W3C//DTD SVG 20010904//EN"
 "http://www.w3.org/TR/2001/REC-SVG-20010904/DTD/svg10.dtd">
<svg version="1.0" xmlns="http://www.w3.org/2000/svg"
 width="558.000000pt" height="90.000000pt" viewBox="0 0 558.000000 90.000000"
 preserveAspectRatio="xMidYMid meet">

<g transform="translate(0.000000,90.000000) scale(0.100000,-0.100000)"
fill="#000000" stroke="none">
<path d="M2030 605 c-20 -24 -8 -50 27 -53 25 -2 33 1 38 18 13 40 -38 68 -65
35z"/>
<path d="M770 596 c0 -2 -27 -81 -60 -175 l-59 -171 39 0 c39 0 40 1 52 45
l12 46 65 -3 65 -3 12 -40 c10 -37 13 -40 51 -43 l41 -3 -40 113 c-22 62 -50
141 -61 176 l-21 62 -48 0 c-26 0 -48 -2 -48 -4z m69 -113 c7 -27 15 -56 18
-65 5 -15 -1 -18 -36 -18 -24 0 -41 5 -41 12 0 19 33 118 40 118 3 0 12 -21
19 -47z"/>
<path d="M3230 593 c-38 -14 -60 -47 -60 -88 0 -50 21 -75 90 -110 55 -28 63
-36 54 -59 -10 -25 -52 -30 -105 -13 l-49 15 0 -33 c0 -30 4 -35 36 -45 20 -7
59 -10 87 -7 41 3 56 11 79 36 53 60 31 116 -66 165 -44 22 -56 33 -56 52 0
30 33 40 86 25 44 -12 40 -13 49 20 6 23 3 28 -26 38 -33 11 -93 13 -119 4z"/>
<path d="M4649 586 c-41 -23 -59 -73 -59 -160 0 -121 39 -176 125 -176 44 0
91 40 105 88 23 85 7 192 -34 231 -31 29 -100 37 -137 17z m98 -83 c11 -27 14
-57 10 -101 -5 -66 -18 -92 -48 -92 -32 0 -49 39 -49 115 0 77 17 115 51 115
14 0 25 -12 36 -37z"/>
<path d="M4936 489 c-51 -75 -76 -121 -76 -140 l0 -29 75 0 75 0 0 -35 c0 -33
2 -35 35 -35 33 0 35 2 35 35 0 28 4 35 20 35 16 0 20 7 20 30 0 23 -4 30 -20
30 -19 0 -20 7 -20 110 l0 110 -34 0 c-33 0 -39 -6 -110 -111z m74 -44 l0 -65
-45 0 -45 0 42 65 c24 35 44 65 46 65 1 0 2 -29 2 -65z"/>
<path d="M3472 551 c-6 -16 -20 -34 -31 -41 -27 -14 -27 -36 -1 -43 18 -5 20
-14 20 -91 0 -100 15 -126 74 -126 49 0 66 9 66 35 0 19 -6 24 -32 27 l-33 3
-3 78 -3 77 36 0 c31 0 35 3 35 25 0 22 -4 25 -34 25 -30 0 -35 3 -38 28 -5
40 -42 43 -56 3z"/>
<path d="M1030 385 l0 -135 35 0 35 0 0 83 c0 93 15 127 56 127 33 0 44 -32
44 -131 l0 -79 35 0 35 0 0 86 c0 95 10 124 43 124 40 0 47 -18 47 -117 l0
-93 35 0 35 0 0 114 c0 112 -1 115 -26 135 -40 31 -111 24 -136 -13 -6 -8 -10
-8 -15 0 -26 37 -97 44 -136 14 -25 -20 -25 -20 -30 0 -3 14 -14 20 -31 20
l-26 0 0 -135z"/>
<path d="M1552 501 c-38 -25 -52 -55 -52 -117 0 -87 49 -134 139 -134 61 0 91
15 91 45 0 20 -4 25 -17 21 -74 -21 -134 -10 -141 27 -3 15 7 17 84 17 l87 0
-5 51 c-7 68 -38 100 -105 106 -36 3 -56 -1 -81 -16z m99 -41 c10 -6 19 -20
19 -30 0 -17 -7 -20 -50 -20 -54 0 -62 10 -33 42 18 20 36 23 64 8z"/>
<path d="M1800 385 l0 -135 35 0 35 0 0 71 c0 96 18 129 73 129 24 0 27 4 27
35 0 30 -3 35 -24 35 -13 0 -35 -9 -49 -20 -14 -11 -28 -20 -31 -20 -3 0 -6 9
-6 20 0 16 -7 20 -30 20 l-30 0 0 -135z"/>
<path d="M2020 385 l0 -135 40 0 40 0 0 135 0 135 -40 0 -40 0 0 -135z"/>
<path d="M2223 505 c-46 -20 -66 -65 -61 -137 6 -77 34 -109 106 -116 64 -6
92 9 92 49 0 26 -2 29 -19 19 -34 -18 -78 -12 -95 12 -21 29 -20 77 0 106 14
20 23 23 61 20 40 -3 47 0 54 20 7 19 4 24 -17 32 -35 14 -83 12 -121 -5z"/>
<path d="M2468 509 c-31 -12 -33 -18 -15 -42 10 -14 18 -15 47 -7 45 13 46 13
64 -6 25 -25 19 -34 -24 -34 -51 0 -105 -22 -119 -48 -45 -84 50 -155 136
-103 31 19 31 19 36 0 3 -13 14 -19 31 -19 l26 0 0 104 c0 95 -2 107 -23 132
-19 22 -33 28 -78 30 -30 2 -66 -1 -81 -7z m112 -149 c0 -23 -33 -60 -54 -60
-22 0 -46 29 -39 46 7 18 38 32 71 33 16 1 22 -5 22 -19z"/>
<path d="M2720 385 l0 -135 40 0 40 0 0 86 c0 101 9 124 50 124 41 0 50 -23
50 -124 l0 -86 35 0 35 0 0 100 c0 54 -5 110 -11 123 -22 48 -97 62 -142 27
l-26 -20 -6 20 c-4 14 -15 20 -36 20 l-29 0 0 -135z"/>
<path d="M3708 504 c-37 -20 -58 -63 -58 -119 0 -60 23 -103 65 -121 43 -18
77 -18 120 0 42 18 65 61 65 121 0 25 -7 60 -16 76 -27 53 -118 75 -176 43z
m106 -60 c10 -9 16 -33 16 -59 0 -49 -19 -75 -55 -75 -36 0 -55 26 -55 75 0
49 19 75 55 75 13 0 31 -7 39 -16z"/>
<path d="M3960 385 l0 -135 40 0 40 0 0 83 c0 93 13 117 63 117 20 0 27 5 27
19 0 11 3 26 6 35 10 27 -49 20 -79 -8 l-27 -25 -6 25 c-5 18 -13 24 -35 24
l-29 0 0 -135z"/>
<path d="M4244 510 c-54 -22 -85 -103 -65 -170 20 -68 84 -99 176 -86 42 7 45
9 45 37 0 27 -2 29 -27 22 -66 -16 -123 -1 -123 33 0 11 19 14 85 14 l85 0 0
30 c0 96 -88 156 -176 120z m88 -57 c33 -29 22 -43 -32 -43 -54 0 -65 14 -34
44 20 21 43 20 66 -1z"/>
</g>
</svg>
